<?xml version="1.0" encoding="UTF-8" standalone="no"?>
<!DOCTYPE svg PUBLIC "-//W3C//DTD SVG 1.1//EN"
 "http://www.w3.org/Graphics/SVG/1.1/DTD/svg11.dtd">
<!-- Generated by graphviz version 2.36.0 (20140111.2315)
 -->
<!-- Title: G Pages: 1 -->
<svg width="480pt" height="116pt"
 viewBox="0.00 0.00 480.00 116.00" xmlns="http://www.w3.org/2000/svg" xmlns:xlink="http://www.w3.org/1999/xlink">
<g id="graph0" class="graph" transform="scale(1 1) rotate(0) translate(4 112)">
<title>G</title>
<polygon fill="white" stroke="none" points="-4,4 -4,-112 476,-112 476,4 -4,4"/>
<!-- c0 -->
<g id="node1" class="node"><title>c0</title>
<g id="a_node1"><a xlink:href="null" xlink:title="&lt;TABLE&gt;">
<polygon fill="none" stroke="black" points="31,-80 31,-100 131,-100 131,-80 31,-80"/>
<text text-anchor="start" x="35.5" y="-87.5" font-family="Helvetica,sans-Serif" font-size="10.00"> SequentialCoupling </text>
</a>
</g>
</g>
<!-- c1 -->
<g id="node2" class="node"><title>c1</title>
<g id="a_node2"><a xlink:href="null" xlink:title="&lt;TABLE&gt;">
<polygon fill="none" stroke="black" points="50,-8 50,-28 113,-28 113,-8 50,-8"/>
<text text-anchor="start" x="54.5" y="-15.5" font-family="Helvetica,sans-Serif" font-style="oblique" font-size="10.00"> DarcyFlow </text>
</a>
</g>
</g>
<!-- c0&#45;&gt;c1 -->
<g id="edge1" class="edge"><title>c0:p&#45;&gt;c1:p</title>
<path fill="none" stroke="black" d="M81,-79.8487C81,-69.4258 81,-52.0928 81,-38.5865"/>
<polygon fill="black" stroke="black" points="81,-28.3769 85.5001,-38.3769 81,-33.3769 81.0001,-38.3769 81.0001,-38.3769 81.0001,-38.3769 81,-33.3769 76.5001,-38.377 81,-28.3769 81,-28.3769"/>
<text text-anchor="middle" x="40.5" y="-42.3769" font-family="Helvetica,sans-Serif" font-size="10.00">primary_equation &#160;</text>
<text text-anchor="middle" x="40.5" y="-31.3769" font-family="Helvetica,sans-Serif" font-size="10.00"> </text>
</g>
<!-- c2 -->
<g id="node3" class="node"><title>c2</title>
<g id="a_node3"><a xlink:href="null" xlink:title="&lt;TABLE&gt;">
<polygon fill="none" stroke="black" points="166,-80 166,-100 233,-100 233,-80 166,-80"/>
<text text-anchor="start" x="170.5" y="-87.5" font-family="Helvetica,sans-Serif" font-size="10.00"> Steady_MH </text>
</a>
</g>
</g>
<!-- c3 -->
<g id="node4" class="node"><title>c3</title>
<g id="a_node4"><a xlink:href="null" xlink:title="&lt;TABLE&gt;">
<polygon fill="none" stroke="black" points="267,-80 267,-100 346,-100 346,-80 267,-80"/>
<text text-anchor="start" x="271.5" y="-87.5" font-family="Helvetica,sans-Serif" font-size="10.00"> Unsteady_MH </text>
</a>
</g>
</g>
<!-- c4 -->
<g id="node5" class="node"><title>c4</title>
<g id="a_node5"><a xlink:href="null" xlink:title="&lt;TABLE&gt;">
<polygon fill="none" stroke="black" points="380,-80 380,-100 464,-100 464,-80 380,-80"/>
<text text-anchor="start" x="384.5" y="-87.5" font-family="Helvetica,sans-Serif" font-size="10.00"> Unsteady_LMH </text>
</a>
</g>
</g>
</g>
</svg>
