<?xml version="1.0" encoding="UTF-8" standalone="no"?>
<!DOCTYPE svg PUBLIC "-//W3C//DTD SVG 1.1//EN"
 "http://www.w3.org/Graphics/SVG/1.1/DTD/svg11.dtd">
<!-- Generated by graphviz version 2.36.0 (20140111.2315)
 -->
<!-- Title: G Pages: 1 -->
<svg width="238pt" height="166pt"
 viewBox="0.00 0.00 237.66 166.00" xmlns="http://www.w3.org/2000/svg" xmlns:xlink="http://www.w3.org/1999/xlink">
<g id="graph0" class="graph" transform="scale(1 1) rotate(0) translate(4 162)">
<title>G</title>
<polygon fill="white" stroke="none" points="-4,4 -4,-162 233.663,-162 233.663,4 -4,4"/>
<!-- c0 -->
<g id="node1" class="node"><title>c0</title>
<g id="a_node1"><a xlink:href="null" xlink:title="&lt;TABLE&gt;">
<polygon fill="none" stroke="black" points="17.8787,-8 17.8787,-28 90.8787,-28 90.8787,-8 17.8787,-8"/>
<text text-anchor="start" x="22.3787" y="-15.5" font-family="Helvetica,sans-Serif" font-size="10.00"> SorptionData </text>
</a>
</g>
</g>
<!-- c1 -->
<g id="node2" class="node"><title>c1</title>
<g id="a_node2"><a xlink:href="null" xlink:title="&lt;TABLE&gt;">
<polygon fill="none" stroke="black" points="124.879,-8 124.879,-28 201.879,-28 201.879,-8 124.879,-8"/>
<text text-anchor="start" x="129.379" y="-15.5" font-family="Helvetica,sans-Serif" font-size="10.00"> ReactionTerm </text>
</a>
</g>
</g>
<!-- c2 -->
<g id="node3" class="node"><title>c2</title>
<g id="a_node3"><a xlink:href="null" xlink:title="&lt;TABLE&gt;">
<polygon fill="none" stroke="black" points="32.8787,-134 32.8787,-154 183.879,-154 183.879,-134 32.8787,-134"/>
<text text-anchor="start" x="72.8787" y="-141.5" font-family="Helvetica,sans-Serif" font-size="10.00"> SorptionMobile </text>
<polygon fill="none" stroke="black" points="32.8787,-76 32.8787,-134 183.879,-134 183.879,-76 32.8787,-76"/>
<text text-anchor="start" x="36.8787" y="-122" font-family="Helvetica,sans-Serif" font-size="10.00"> &#160;solvent_density : double </text>
<text text-anchor="start" x="36.8787" y="-109" font-family="Helvetica,sans-Serif" font-size="10.00"> &#160;substances : string[] </text>
<text text-anchor="start" x="36.8787" y="-96" font-family="Helvetica,sans-Serif" font-size="10.00"> &#160;reaction_liquid : ReactionTerm </text>
<text text-anchor="start" x="36.8787" y="-83" font-family="Helvetica,sans-Serif" font-size="10.00"> &#160;input_fields : SorptionData[] </text>
</a>
</g>
</g>
<!-- c2&#45;&gt;c0 -->
<g id="edge2" class="edge"><title>c2:p&#45;&gt;c0:p</title>
<path fill="none" stroke="black" d="M86.226,-75.9073C78.5879,-62.4698 70.355,-47.986 64.1065,-36.9933"/>
<polygon fill="black" stroke="black" points="59,-28.0096 67.8539,-34.4795 61.4709,-32.3565 63.9417,-36.7033 63.9417,-36.7033 63.9417,-36.7033 61.4709,-32.3565 60.0296,-38.9271 59,-28.0096 59,-28.0096"/>
<text text-anchor="middle" x="29.5" y="-42.0096" font-family="Helvetica,sans-Serif" font-size="10.00"> &#160;&#160;input_fields</text>
<text text-anchor="middle" x="29.5" y="-31.0096" font-family="Helvetica,sans-Serif" font-size="10.00">0..* </text>
</g>
<!-- c2&#45;&gt;c1 -->
<g id="edge1" class="edge"><title>c2:p&#45;&gt;c1:p</title>
<path fill="none" stroke="black" d="M129.932,-75.9073C137.712,-62.4698 146.097,-47.986 152.462,-36.9933"/>
<polygon fill="black" stroke="black" points="157.663,-28.0096 156.547,-38.9186 155.157,-32.3367 152.652,-36.6639 152.652,-36.6639 152.652,-36.6639 155.157,-32.3367 148.758,-34.4092 157.663,-28.0096 157.663,-28.0096"/>
<text text-anchor="middle" x="193.663" y="-42.0096" font-family="Helvetica,sans-Serif" font-size="10.00"> &#160;&#160;reaction_liquid</text>
<text text-anchor="middle" x="193.663" y="-31.0096" font-family="Helvetica,sans-Serif" font-size="10.00">0..1</text>
</g>
</g>
</svg>
