<?xml version="1.0" encoding="UTF-8" standalone="no"?>
<!DOCTYPE svg PUBLIC "-//W3C//DTD SVG 1.1//EN"
 "http://www.w3.org/Graphics/SVG/1.1/DTD/svg11.dtd">
<!-- Generated by graphviz version 2.36.0 (20140111.2315)
 -->
<!-- Title: G Pages: 1 -->
<svg width="374pt" height="264pt"
 viewBox="0.00 0.00 373.71 264.00" xmlns="http://www.w3.org/2000/svg" xmlns:xlink="http://www.w3.org/1999/xlink">
<g id="graph0" class="graph" transform="scale(1 1) rotate(0) translate(4 260)">
<title>G</title>
<polygon fill="white" stroke="none" points="-4,4 -4,-260 369.714,-260 369.714,4 -4,4"/>
<!-- c0 -->
<g id="node1" class="node"><title>c0</title>
<g id="a_node1"><a xlink:href="null" xlink:title="&lt;TABLE&gt;">
<polygon fill="none" stroke="black" points="116.578,-228 116.578,-248 176.578,-248 176.578,-228 116.578,-228"/>
<text text-anchor="start" x="121.078" y="-235.5" font-family="Helvetica,sans-Serif" font-style="oblique" font-size="10.00"> DataNode </text>
</a>
</g>
</g>
<!-- c1 -->
<g id="node2" class="node"><title>c1</title>
<g id="a_node2"><a xlink:href="null" xlink:title="&lt;TABLE&gt;">
<polygon fill="none" stroke="black" points="93.5779,-118 93.5779,-138 200.578,-138 200.578,-118 93.5779,-118"/>
<text text-anchor="start" x="98.0779" y="-125.5" font-family="Helvetica,sans-Serif" font-style="oblique" font-size="10.00"> CompositeDataNode </text>
</a>
</g>
</g>
<!-- c0&#45;&gt;c1 -->
<g id="edge1" class="edge"><title>c0:p&#45;&gt;c1:p</title>
<path fill="none" stroke="black" d="M146.578,-217.656C146.578,-194.219 146.578,-155.701 146.578,-138.185"/>
<polygon fill="none" stroke="black" points="143.078,-217.792 146.578,-227.792 150.078,-217.792 143.078,-217.792"/>
</g>
<!-- c4 -->
<g id="node5" class="node"><title>c4</title>
<g id="a_node5"><a xlink:href="null" xlink:title="&lt;TABLE&gt;">
<polygon fill="none" stroke="black" points="259.578,-118 259.578,-138 347.578,-138 347.578,-118 259.578,-118"/>
<text text-anchor="start" x="264.078" y="-125.5" font-family="Helvetica,sans-Serif" font-size="10.00"> ScalarDataNode </text>
</a>
</g>
</g>
<!-- c0&#45;&gt;c4 -->
<g id="edge5" class="edge"><title>c0:p&#45;&gt;c4:p</title>
<path fill="none" stroke="black" d="M168.166,-222.15C201.11,-199.487 262.968,-156.936 290.167,-138.226"/>
<polygon fill="none" stroke="black" points="165.949,-219.427 159.694,-227.978 169.916,-225.194 165.949,-219.427"/>
</g>
<!-- c1&#45;&gt;c0 -->
<g id="edge2" class="edge"><title>c1:p&#45;&gt;c0:p</title>
<path fill="none" stroke="black" d="M146.578,-138.185C146.578,-155.701 146.578,-194.219 146.578,-217.656"/>
<polygon fill="black" stroke="black" points="146.578,-227.792 142.078,-217.792 146.578,-222.792 146.578,-217.792 146.578,-217.792 146.578,-217.792 146.578,-222.792 151.078,-217.792 146.578,-227.792 146.578,-227.792"/>
<text text-anchor="middle" x="129.578" y="-219.792" font-family="Helvetica,sans-Serif" font-size="10.00">children</text>
</g>
<!-- c2 -->
<g id="node3" class="node"><title>c2</title>
<g id="a_node3"><a xlink:href="null" xlink:title="&lt;TABLE&gt;">
<polygon fill="none" stroke="black" points="18.5779,-8 18.5779,-28 115.578,-28 115.578,-8 18.5779,-8"/>
<text text-anchor="start" x="23.0779" y="-15.5" font-family="Helvetica,sans-Serif" font-size="10.00"> MappingDataNode </text>
</a>
</g>
</g>
<!-- c1&#45;&gt;c2 -->
<g id="edge3" class="edge"><title>c1:p&#45;&gt;c2:p</title>
<path fill="none" stroke="black" d="M133.644,-109.539C116.456,-86.336 86.7103,-46.1787 73.3814,-28.1847"/>
<polygon fill="none" stroke="black" points="130.992,-111.84 139.757,-117.792 136.617,-107.673 130.992,-111.84"/>
</g>
<!-- c3 -->
<g id="node4" class="node"><title>c3</title>
<g id="a_node4"><a xlink:href="null" xlink:title="&lt;TABLE&gt;">
<polygon fill="none" stroke="black" points="175.578,-8 175.578,-28 278.578,-28 278.578,-8 175.578,-8"/>
<text text-anchor="start" x="180.078" y="-15.5" font-family="Helvetica,sans-Serif" font-size="10.00"> SequenceDataNode </text>
</a>
</g>
</g>
<!-- c1&#45;&gt;c3 -->
<g id="edge4" class="edge"><title>c1:p&#45;&gt;c3:p</title>
<path fill="none" stroke="black" d="M159.512,-109.539C176.699,-86.336 206.446,-46.1787 219.774,-28.1847"/>
<polygon fill="none" stroke="black" points="156.539,-107.673 153.399,-117.792 162.163,-111.84 156.539,-107.673"/>
</g>
</g>
</svg>
